<?xml version="1.0" encoding="utf-8"?>
<svg xmlns="http://www.w3.org/2000/svg" version="1.1" width="500px" height="500px" style="shape-rendering:geometricPrecision; text-rendering:geometricPrecision; image-rendering:optimizeQuality; fill-rule:evenodd; clip-rule:evenodd">
  <path fill="#000" d="M 243.5 5.5 C 253.659 4.787 262.659 7.621 270.5 14 C 342 85.5 413.5 157 485 228.5 C 496.331 242.513 496.331 256.513 485 270.5 C 413.5 342 342 413.5 270.5 485 C 256.513 496.331 242.513 496.331 228.5 485 C 157 413.5 85.5 342 14 270.5 C 2.669 256.513 2.669 242.513 14 228.5 C 85.5 157 157 85.5 228.5 14 C 232.978 10.099 237.978 7.265 243.5 5.5 Z M 380 234.5 C 379.501 230.848 379.335 227.182 379.5 223.5 C 373.167 223.5 366.833 223.5 360.5 223.5 C 360.5 249.5 360.5 275.5 360.5 301.5 C 367.5 301.5 374.5 301.5 381.5 301.5 C 381.333 284.163 381.5 266.83 382 249.5 C 383.198 246.274 385.031 243.441 387.5 241 C 396.547 235.23 404.047 236.73 410 245.5 C 410.5 264.164 410.667 282.83 410.5 301.5 C 417.5 301.5 424.5 301.5 431.5 301.5 C 431.667 281.831 431.5 262.164 431 242.5 C 430.566 236.855 428.399 232.021 424.5 228 C 416.627 222.857 407.961 220.69 398.5 221.5 C 391.157 223.941 384.99 228.275 380 234.5 Z M 276 212.5 C 273.229 226.453 278.062 236.62 290.5 243 C 281.849 246.984 276.015 253.484 273 262.5 C 271.171 291.19 284.671 304.69 313.5 303 C 328.533 301.302 338.033 293.135 342 278.5 C 345.506 262.351 340.006 250.518 325.5 243 C 340.697 232.601 343.53 219.434 334 203.5 C 324.699 194.542 313.532 190.875 300.5 192.5 C 288.64 194.517 280.474 201.183 276 212.5 Z M 221 223.5 C 221.5 249.498 221.667 275.498 221.5 301.5 C 228.167 301.5 234.833 301.5 241.5 301.5 C 241.5 265.167 241.5 228.833 241.5 192.5 C 236.156 192.334 230.823 192.501 225.5 193 C 218.987 205.76 208.987 214.593 195.5 219.5 C 195.176 226.354 195.509 233.021 196.5 239.5 C 205.846 235.989 214.013 230.656 221 223.5 Z M 152.5 301.5 C 159.167 301.5 165.833 301.5 172.5 301.5 C 172.5 275.5 172.5 249.5 172.5 223.5 C 165.833 223.5 159.167 223.5 152.5 223.5 C 152.5 249.5 152.5 275.5 152.5 301.5 Z M 152.5 211.5 C 159.167 211.5 165.833 211.5 172.5 211.5 C 172.5 205.5 172.5 199.5 172.5 193.5 C 165.833 193.5 159.167 193.5 152.5 193.5 C 152.5 199.5 152.5 205.5 152.5 211.5 Z M 77.5 228 C 65.13 239.106 60.297 252.939 63 269.5 C 66.495 294.168 80.661 305.334 105.5 303 C 119.729 301.606 129.062 294.106 133.5 280.5 C 127.255 278.798 120.922 277.464 114.5 276.5 C 112.893 279.525 110.893 282.358 108.5 285 C 93.584 289.961 85.25 284.461 83.5 268.5 C 100.833 268.5 118.167 268.5 135.5 268.5 C 135.861 261.027 135.028 253.694 133 246.5 C 125.855 228.165 112.355 219.832 92.5 221.5 C 87.142 222.573 82.142 224.74 77.5 228 Z" style=""/>
  <path fill="#000" d="M 94.5,237.5 C 107.875,236.214 114.542,242.214 114.5,255.5C 104.5,255.5 94.5,255.5 84.5,255.5C 83.6959,247.101 87.0293,241.101 94.5,237.5 Z"/>
  <path fill="#000" d="M 302.5,251.5 C 312.094,249.967 318.594,253.634 322,262.5C 323.948,271.015 322.114,278.515 316.5,285C 304.293,290.147 296.46,286.313 293,273.5C 291.052,263.816 294.218,256.482 302.5,251.5 Z"/>
  <path fill="#000" d="M 302.5,208.5 C 316.975,207.806 322.475,214.473 319,228.5C 315.155,234.667 309.655,236.834 302.5,235C 295.717,230.666 293.217,224.499 295,216.5C 297.028,213.308 299.528,210.641 302.5,208.5 Z"/>
</svg>