<?xml version="1.0" encoding="UTF-8"?>
<!DOCTYPE svg PUBLIC "-//W3C//DTD SVG 1.1//EN" "http://www.w3.org/Graphics/SVG/1.1/DTD/svg11.dtd">
<svg xmlns="http://www.w3.org/2000/svg" version="1.1" width="500px" height="500px" style="shape-rendering:geometricPrecision; text-rendering:geometricPrecision; image-rendering:optimizeQuality; fill-rule:evenodd; clip-rule:evenodd" xmlns:xlink="http://www.w3.org/1999/xlink">
<g><path style="opacity:0.945" fill="#d7dae0" d="M 242.5,4.5 C 252.95,3.0422 262.284,5.5422 270.5,12C 342.667,84.1667 414.833,156.333 487,228.5C 497,242.5 497,256.5 487,270.5C 414.833,342.667 342.667,414.833 270.5,487C 256.5,497 242.5,497 228.5,487C 156.333,414.833 84.1667,342.667 12,270.5C 2,256.5 2,242.5 12,228.5C 84.1667,156.333 156.333,84.1667 228.5,12C 232.815,8.67822 237.482,6.17822 242.5,4.5 Z"/></g>
<g><path style="opacity:1" fill="#d7dae0" d="M 243.5,5.5 C 253.659,4.78741 262.659,7.62074 270.5,14C 342,85.5 413.5,157 485,228.5C 496.331,242.513 496.331,256.513 485,270.5C 413.5,342 342,413.5 270.5,485C 256.513,496.331 242.513,496.331 228.5,485C 157,413.5 85.5,342 14,270.5C 2.66858,256.513 2.66858,242.513 14,228.5C 85.5,157 157,85.5 228.5,14C 232.978,10.0985 237.978,7.26512 243.5,5.5 Z"/></g>
<g><path style="opacity:1" fill="#000000" d="M 152.5,223.5 C 159.167,223.5 165.833,223.5 172.5,223.5C 172.5,249.5 172.5,275.5 172.5,301.5C 165.833,301.5 159.167,301.5 152.5,301.5C 152.5,275.5 152.5,249.5 152.5,223.5 Z"/></g>
<g><path style="opacity:1" fill="#000000" d="M 398.5,221.5 C 407.961,220.69 416.627,222.857 424.5,228C 428.399,232.021 430.566,236.855 431,242.5C 431.5,262.164 431.667,281.831 431.5,301.5C 424.5,301.5 417.5,301.5 410.5,301.5C 410.667,282.83 410.5,264.164 410,245.5C 404.047,236.73 396.547,235.23 387.5,241C 385.031,243.441 383.198,246.274 382,249.5C 381.5,266.83 381.333,284.163 381.5,301.5C 374.5,301.5 367.5,301.5 360.5,301.5C 360.5,275.5 360.5,249.5 360.5,223.5C 366.833,223.5 373.167,223.5 379.5,223.5C 379.335,227.182 379.501,230.848 380,234.5C 384.99,228.275 391.157,223.941 398.5,221.5 Z"/></g>
<g><path style="opacity:1" fill="#000000" d="M 92.5,221.5 C 112.355,219.832 125.855,228.165 133,246.5C 135.028,253.694 135.861,261.027 135.5,268.5C 118.167,268.5 100.833,268.5 83.5,268.5C 85.2504,284.461 93.5837,289.961 108.5,285C 110.893,282.358 112.893,279.525 114.5,276.5C 120.922,277.464 127.255,278.798 133.5,280.5C 129.062,294.106 119.729,301.606 105.5,303C 80.6612,305.334 66.4946,294.168 63,269.5C 60.2968,252.939 65.1302,239.106 77.5,228C 82.142,224.74 87.142,222.573 92.5,221.5 Z"/></g>
<g><path style="opacity:1" fill="#d7dae0" d="M 94.5,237.5 C 107.875,236.214 114.542,242.214 114.5,255.5C 104.5,255.5 94.5,255.5 84.5,255.5C 83.6959,247.101 87.0293,241.101 94.5,237.5 Z"/></g>
<g><path style="opacity:1" fill="#000000" d="M 195.5,219.5 C 195.176,226.354 195.509,233.021 196.5,239.5C 196.44,240.043 196.107,240.376 195.5,240.5C 194.181,233.344 194.181,226.344 195.5,219.5 Z"/></g>
<g><path style="opacity:1" fill="#000000" d="M 152.5,193.5 C 159.167,193.5 165.833,193.5 172.5,193.5C 172.5,199.5 172.5,205.5 172.5,211.5C 165.833,211.5 159.167,211.5 152.5,211.5C 152.5,205.5 152.5,199.5 152.5,193.5 Z"/></g>
<g><path style="opacity:1" fill="#000000" d="M 300.5,192.5 C 313.532,190.875 324.699,194.542 334,203.5C 343.53,219.434 340.697,232.601 325.5,243C 340.006,250.518 345.506,262.351 342,278.5C 338.033,293.135 328.533,301.302 313.5,303C 284.671,304.69 271.171,291.19 273,262.5C 276.015,253.484 281.849,246.984 290.5,243C 278.062,236.62 273.229,226.453 276,212.5C 280.474,201.183 288.64,194.517 300.5,192.5 Z"/></g>
<g><path style="opacity:1" fill="#d7dae0" d="M 302.5,251.5 C 312.094,249.967 318.594,253.634 322,262.5C 323.948,271.015 322.114,278.515 316.5,285C 304.293,290.147 296.46,286.313 293,273.5C 291.052,263.816 294.218,256.482 302.5,251.5 Z"/></g>
<g><path style="opacity:1" fill="#d7dae0" d="M 302.5,208.5 C 316.975,207.806 322.475,214.473 319,228.5C 315.155,234.667 309.655,236.834 302.5,235C 295.717,230.666 293.217,224.499 295,216.5C 297.028,213.308 299.528,210.641 302.5,208.5 Z"/></g>
<g><path style="opacity:1" fill="#000000" d="M 196.5,239.5 C 195.509,233.021 195.176,226.354 195.5,219.5C 208.987,214.593 218.987,205.76 225.5,193C 230.823,192.501 236.156,192.334 241.5,192.5C 241.5,228.833 241.5,265.167 241.5,301.5C 234.833,301.5 228.167,301.5 221.5,301.5C 221.667,275.498 221.5,249.498 221,223.5C 214.013,230.656 205.846,235.989 196.5,239.5 Z"/></g>
</svg>
